{"title":"[MARATHI] Wadhta Wadhta Wadhe - Drama x264 MP3 [TMB]","uid":8565734,"size":569407980,"categoryP":"video","categoryS":"movies","magnet":"?xt=urn:btih:ca66979d18f3c01f00812763151a79388ff62297&amp;dn=%5BMARATHI%5D+Wadhta+Wadhta+Wadhe+-+Drama+x264+MP3+%5BTMB%5D&amp;tr=udp%3A%2F%2Ftracker.openbittorrent.com%3A80&amp;tr=udp%3A%2F%2Fopen.demonii.com%3A1337&amp;tr=udp%3A%2F%2Ftracker.coppersurfer.tk%3A6969&amp;tr=udp%3A%2F%2Fexodus.desync.com%3A6969","seeders":0,"leechers":1,"uploader":"SJonam","files":1,"time":1371023568,"description":" &lt;a href=&quot;\nhttp://desibbrg.org/images/32356801851046293468.png&quot; rel=&quot;nofollow&quot; target=&quot;_NEW&quot;&gt;\nhttp://desibbrg.org/images/32356801851046293468.png&lt;/a&gt; &lt;a href=&quot;\nhttp://desibbrg.org/images/37178271795939314372.png&quot; rel=&quot;nofollow&quot; target=&quot;_NEW&quot;&gt;\nhttp://desibbrg.org/images/37178271795939314372.png&lt;/a&gt; &lt;a href=&quot;\nhttp://desibbrg.org/images/74270921592058301653.png&quot; rel=&quot;nofollow&quot; target=&quot;_NEW&quot;&gt;\nhttp://desibbrg.org/images/74270921592058301653.png&lt;/a&gt; &lt;a href=&quot;\nhttp://desibbrg.org/images/52855942308663342770.png&quot; rel=&quot;nofollow&quot; target=&quot;_NEW&quot;&gt;\nhttp://desibbrg.org/images/52855942308663342770.png&lt;/a&gt; &lt;a href=&quot;\nhttp://desibbrg.org/images/29599538102745494252.png&quot; rel=&quot;nofollow&quot; target=&quot;_NEW&quot;&gt;\nhttp://desibbrg.org/images/29599538102745494252.png&lt;/a&gt;\n\nGeneral\nComplete name                  : Wadhta Wadhta Wadhe - Marathi Drama x264 MP3 [TMB].avi\nFormat                         : AVI\nFormat/Info                    : Audio Video Interleave\nFile size                      : 543 MiB\nDuration                       : 1h 52mn\nOverall bit rate               : 676 Kbps\nWriting application            : Lavf54.63.104\n\nVideo\nID                             : 0\nFormat                         : AVC\nFormat/Info                    : Advanced Video Codec\nFormat profile                 : &lt;a class=&quot;__cf_email__&quot; href=&quot;/cdn-cgi/l/email-protection&quot; data-cfemail=&quot;df97b6b8b79f93ecf1ef&quot;&gt;[email&amp;#160;protected]&lt;/a&gt;&lt;script cf-hash='f9e31' type=&quot;text/javascript&quot;&gt;\n/* &lt;![CDATA[ */!function(){try{var t=&quot;currentScript&quot;in document?document.currentScript:function(){for(var t=document.getElementsByTagName(&quot;script&quot;),e=t.length;e--;)if(t[e].getAttribute(&quot;cf-hash&quot;))return t[e]}();if(t&amp;&amp;t.previousSibling){var e,r,n,i,c=t.previousSibling,a=c.getAttribute(&quot;data-cfemail&quot;);if(a){for(e=&quot;&quot;,r=parseInt(a.substr(0,2),16),n=2;a.length-n;n+=2)i=parseInt(a.substr(n,2),16)^r,e+=String.fromCharCode(i);e=document.createTextNode(e),c.parentNode.replaceChild(e,c)}}}catch(u){}}();/* ]]&gt; */&lt;/script&gt;\nFormat settings, CABAC         : Yes\nFormat settings, ReFrames      : 1 frame\nCodec ID                       : H264\nDuration                       : 1h 52mn\nBit rate                       : 409 Kbps\nWidth                          : 640 pixels\nHeight                         : 480 pixels\nDisplay aspect ratio           : 4:3\nFrame rate mode                : Variable\nFrame rate                     : 25.000 fps\nColor space                    : YUV\nChroma subsampling             : 4:2:0\nBit depth                      : 8 bits\nScan type                      : Progressive\nBits/(Pixel*Frame)             : 0.053\nStream size                    : 328 MiB (60%)\nWriting library                : x264 core 129\n\nAudio\nID                             : 1\nFormat                         : MPEG Audio\nFormat version                 : Version 1\nFormat profile                 : Layer 3\nMode                           : Joint stereo\nMode extension                 : MS Stereo\nCodec ID                       : 55\nCodec ID/Hint                  : MP3\nDuration                       : 1h 52mn\nBit rate mode                  : Constant\nBit rate                       : 256 Kbps\nChannel(s)                     : 2 channels\nSampling rate                  : 44.1 KHz\nCompression mode               : Lossy\nStream size                    : 205 MiB (38%)\nAlignment                      : Aligned on interleaves\nInterleave, duration           : 26 ms (0.65 video frame)\nWriting library                : LAME3.99.5\n\nRipper : Manojvb\n\nSeeding 24x7... Extreme Seeding...\n\n\n","torrent":{"xt":"urn:btih:ca66979d18f3c01f00812763151a79388ff62297","amp;dn":"%5BMARATHI%5D+Wadhta+Wadhta+Wadhe+-+Drama+x264+MP3+%5BTMB%5D","amp;tr":["udp%3A%2F%2Ftracker.openbittorrent.com%3A80","udp%3A%2F%2Fopen.demonii.com%3A1337","udp%3A%2F%2Ftracker.coppersurfer.tk%3A6969","udp%3A%2F%2Fexodus.desync.com%3A6969"],"infoHash":"ca66979d18f3c01f00812763151a79388ff62297","infoHashBuffer":{"type":"Buffer","data":[202,102,151,157,24,243,192,31,0,129,39,99,21,26,121,56,143,246,34,151]},"announce":[],"urlList":[]}}